<svg xmlns="http://www.w3.org/2000/svg" xmlns:xlink="http://www.w3.org/1999/xlink" width="1920" zoomAndPan="magnify" viewBox="0 0 1440 809.999993" height="1080" preserveAspectRatio="xMidYMid meet" version="1.2"><defs><filter x="0%" y="0%" width="100%" filterUnits="objectBoundingBox" id="74bec6db44" height="100%"><feColorMatrix values="0 0 0 0 1 0 0 0 0 1 0 0 0 0 1 0 0 0 1 0" type="matrix" in="SourceGraphic"/></filter><clipPath id="f98e79e5e4"><path d="M 1202 87 L 1399.972656 87 L 1399.972656 131 L 1202 131 Z M 1202 87 "/></clipPath><clipPath id="465af0b6eb"><path d="M 1262 653.25 L 1399.972656 653.25 L 1399.972656 673 L 1262 673 Z M 1262 653.25 "/></clipPath><clipPath id="1b6f29d040"><path d="M 1361 305 L 1399.972656 305 L 1399.972656 375 L 1361 375 Z M 1361 305 "/></clipPath><clipPath id="0057dbd8fe"><path d="M 1359 378.058594 L 1399.972656 378.058594 L 1399.972656 411 L 1359 411 Z M 1359 378.058594 "/></clipPath><clipPath id="403c632a2d"><rect x="0" width="1401" y="0" height="810"/></clipPath></defs><g id="c5532157dc"><g mask="url(#26ede4a189)" transform="matrix(1,0,0,1,0,0.000000000000039746)"><g clip-path="url(#403c632a2d)"><path style=" stroke:none;fill-rule:nonzero;fill:#f5b618;fill-opacity:1;" d="M 166.9375 311.257812 C 158.71875 311.257812 152.058594 317.917969 152.058594 326.136719 C 152.058594 334.347656 158.71875 341.015625 166.9375 341.015625 C 175.148438 341.015625 181.816406 334.347656 181.816406 326.136719 C 181.816406 317.917969 175.148438 311.257812 166.9375 311.257812 "/><path style=" stroke:none;fill-rule:nonzero;fill:#f5b618;fill-opacity:1;" d="M 14.585938 467.386719 C 5.824219 467.386719 -1.269531 474.484375 -1.269531 483.246094 C -1.269531 491.996094 5.824219 499.101562 14.585938 499.101562 C 23.339844 499.101562 30.433594 491.996094 30.433594 483.246094 C 30.433594 474.484375 23.339844 467.386719 14.585938 467.386719 "/><path style=" stroke:none;fill-rule:nonzero;fill:#f5b618;fill-opacity:1;" d="M 80.113281 67.222656 C 70.800781 67.222656 63.246094 74.765625 63.246094 84.078125 C 63.246094 93.382812 70.800781 100.9375 80.113281 100.9375 C 89.417969 100.9375 96.960938 93.382812 96.960938 84.078125 C 96.960938 74.765625 89.417969 67.222656 80.113281 67.222656 "/><path style=" stroke:none;fill-rule:nonzero;fill:#f5b618;fill-opacity:1;" d="M 367.9375 139.691406 C 359.40625 139.691406 352.488281 146.609375 352.488281 155.140625 C 352.488281 163.675781 359.40625 170.589844 367.9375 170.589844 C 376.460938 170.589844 383.378906 163.675781 383.378906 155.140625 C 383.378906 146.609375 376.460938 139.691406 367.9375 139.691406 "/><path style=" stroke:none;fill-rule:nonzero;fill:#f5b618;fill-opacity:1;" d="M 609.359375 157.511719 C 600.824219 157.511719 593.910156 164.425781 593.910156 172.960938 C 593.910156 181.492188 600.824219 188.410156 609.359375 188.410156 C 617.882812 188.410156 624.796875 181.492188 624.796875 172.960938 C 624.796875 164.425781 617.882812 157.511719 609.359375 157.511719 "/><path style=" stroke:none;fill-rule:nonzero;fill:#f5b618;fill-opacity:1;" d="M 987.214844 88.390625 C 977.464844 88.390625 969.566406 96.285156 969.566406 106.035156 C 969.566406 115.777344 977.464844 123.683594 987.214844 123.683594 C 996.945312 123.683594 1004.851562 115.777344 1004.851562 106.035156 C 1004.851562 96.285156 996.945312 88.390625 987.214844 88.390625 "/><path style=" stroke:none;fill-rule:nonzero;fill:#f5b618;fill-opacity:1;" d="M 1203.988281 112.199219 C 1194.777344 112.199219 1187.320312 119.65625 1187.320312 128.867188 C 1187.320312 138.066406 1194.777344 145.535156 1203.988281 145.535156 C 1213.1875 145.535156 1220.652344 138.066406 1220.652344 128.867188 C 1220.652344 119.65625 1213.1875 112.199219 1203.988281 112.199219 "/><path style=" stroke:none;fill-rule:nonzero;fill:#f5b618;fill-opacity:1;" d="M 1037.300781 258.671875 C 1028.121094 258.671875 1020.691406 266.101562 1020.691406 275.28125 C 1020.691406 284.453125 1028.121094 291.890625 1037.300781 291.890625 C 1046.472656 291.890625 1053.910156 284.453125 1053.910156 275.28125 C 1053.910156 266.101562 1046.472656 258.671875 1037.300781 258.671875 "/><path style=" stroke:none;fill-rule:nonzero;fill:#f5b618;fill-opacity:1;" d="M 684.074219 315.082031 C 675.882812 315.082031 669.242188 321.714844 669.242188 329.90625 C 669.242188 338.09375 675.882812 344.734375 684.074219 344.734375 C 692.253906 344.734375 698.894531 338.09375 698.894531 329.90625 C 698.894531 321.714844 692.253906 315.082031 684.074219 315.082031 "/><path style=" stroke:none;fill-rule:nonzero;fill:#f5b618;fill-opacity:1;" d="M 435.621094 375.511719 C 426.757812 375.511719 419.574219 382.691406 419.574219 391.566406 C 419.574219 400.433594 426.757812 407.625 435.621094 407.625 C 444.488281 407.625 451.671875 400.433594 451.671875 391.566406 C 451.671875 382.691406 444.488281 375.511719 435.621094 375.511719 "/><path style=" stroke:none;fill-rule:nonzero;fill:#f5b618;fill-opacity:1;" d="M 171.140625 487.800781 C 162.410156 487.800781 155.332031 494.871094 155.332031 503.613281 C 155.332031 512.34375 162.410156 519.421875 171.140625 519.421875 C 179.867188 519.421875 186.953125 512.34375 186.953125 503.613281 C 186.953125 494.871094 179.867188 487.800781 171.140625 487.800781 "/><path style=" stroke:none;fill-rule:nonzero;fill:#f5b618;fill-opacity:1;" d="M 873.066406 -62.574219 L 984.542969 103.988281 L 981.488281 106.035156 L 870.015625 -60.535156 L 873.066406 -62.574219 "/><path style=" stroke:none;fill-rule:nonzero;fill:#f5b618;fill-opacity:1;" d="M 978.765625 109.394531 L 1158.066406 -48.464844 L 1160.492188 -45.707031 L 981.203125 112.152344 L 978.765625 109.394531 "/><path style=" stroke:none;fill-rule:nonzero;fill:#f5b618;fill-opacity:1;" d="M 1041.21875 267.433594 L 1196.691406 130.550781 L 1199.117188 133.300781 L 1043.644531 270.191406 L 1041.21875 267.433594 "/><path style=" stroke:none;fill-rule:nonzero;fill:#f5b618;fill-opacity:1;" d="M 364.105469 162.875 L 382.28125 -23.472656 L 385.945312 -23.121094 L 367.757812 163.238281 L 364.105469 162.875 "/><path style=" stroke:none;fill-rule:nonzero;fill:#f5b618;fill-opacity:1;" d="M 605.6875 175.175781 L 592.699219 -87.382812 L 596.371094 -87.574219 L 609.347656 175.003906 L 605.6875 175.175781 "/><path style=" stroke:none;fill-rule:nonzero;fill:#f5b618;fill-opacity:1;" d="M 605.808594 172.960938 L 364.238281 158.671875 L 364.457031 155 L 606.039062 169.296875 L 605.808594 172.960938 "/><path style=" stroke:none;fill-rule:nonzero;fill:#f5b618;fill-opacity:1;" d="M 677.175781 334.109375 L 443.269531 396.171875 L 442.328125 392.613281 L 676.246094 330.5625 L 677.175781 334.109375 "/><path style=" stroke:none;fill-rule:nonzero;fill:#f5b618;fill-opacity:1;" d="M 732.789062 566.671875 L 684.0625 329.628906 L 687.667969 328.894531 L 736.386719 565.941406 L 732.789062 566.671875 "/><path style=" stroke:none;fill-rule:nonzero;fill:#f5b618;fill-opacity:1;" d="M 977.339844 577.269531 L 1032.203125 277.15625 L 1035.824219 277.820312 L 980.945312 577.9375 L 977.339844 577.269531 "/><path style=" stroke:none;fill-rule:nonzero;fill:#f5b618;fill-opacity:1;" d="M 1173.335938 409.59375 L 1032.324219 273.417969 L 1034.875 270.773438 L 1175.894531 406.960938 L 1173.335938 409.59375 "/><path style=" stroke:none;fill-rule:nonzero;fill:#f5b618;fill-opacity:1;" d="M 1359.789062 375.566406 L 1203.988281 130.835938 L 1207.089844 128.867188 L 1362.890625 373.597656 L 1359.789062 375.566406 "/><path style=" stroke:none;fill-rule:nonzero;fill:#f5b618;fill-opacity:1;" d="M 987.203125 113.199219 L 611.367188 177.203125 L 610.757812 173.578125 L 986.605469 109.574219 L 987.203125 113.199219 "/><path style=" stroke:none;fill-rule:nonzero;fill:#f5b618;fill-opacity:1;" d="M 1039.078125 278.914062 L 684.585938 329.90625 L 684.0625 326.269531 L 1038.574219 275.28125 L 1039.078125 278.914062 "/><path style=" stroke:none;fill-rule:nonzero;fill:#f5b618;fill-opacity:1;" d="M 108.699219 -81.789062 L 83.6875 84.078125 L 80.054688 83.539062 L 105.066406 -82.339844 L 108.699219 -81.789062 "/><path style=" stroke:none;fill-rule:nonzero;fill:#f5b618;fill-opacity:1;" d="M 76.242188 88.066406 L -49.644531 73.492188 L -49.644531 69.800781 L 76.667969 84.414062 L 76.242188 88.066406 "/><path style=" stroke:none;fill-rule:nonzero;fill:#f5b618;fill-opacity:1;" d="M 159.546875 334.0625 L -21.820312 366.671875 L -22.464844 363.058594 L 158.898438 330.4375 L 159.546875 334.0625 "/><path style=" stroke:none;fill-rule:nonzero;fill:#f5b618;fill-opacity:1;" d="M -16.757812 365.3125 L 15.546875 480.132812 L 12.019531 481.132812 L -20.296875 366.3125 L -16.757812 365.3125 "/><path style=" stroke:none;fill-rule:nonzero;fill:#f5b618;fill-opacity:1;" d="M 164.492188 505.621094 L -49.644531 474.902344 L -49.644531 471.191406 L 165.023438 501.984375 L 164.492188 505.621094 "/><path style=" stroke:none;fill-rule:nonzero;fill:#f5b618;fill-opacity:1;" d="M 382.492188 -18.832031 L 81.253906 85.289062 L 80.054688 81.816406 L 381.304688 -22.304688 L 382.492188 -18.832031 "/><path style=" stroke:none;fill-rule:nonzero;fill:#f5b618;fill-opacity:1;" d="M 163.464844 330.4375 L 80.101562 89.265625 L 83.574219 88.066406 L 166.9375 329.25 L 163.464844 330.4375 "/><path style=" stroke:none;fill-rule:nonzero;fill:#f5b618;fill-opacity:1;" d="M 168.277344 327.660156 L 360.652344 160.011719 L 363.066406 162.78125 L 170.695312 330.4375 L 168.277344 327.660156 "/><path style=" stroke:none;fill-rule:nonzero;fill:#f5b618;fill-opacity:1;" d="M 1198.554688 122.882812 L 1154.890625 -39.074219 L 1158.429688 -40.035156 L 1202.113281 121.921875 L 1198.554688 122.882812 "/><path style=" stroke:none;fill-rule:nonzero;fill:#f5b618;fill-opacity:1;" d="M 1033.769531 266.84375 L 987.203125 105.683594 L 990.734375 104.664062 L 1037.300781 265.816406 L 1033.769531 266.84375 "/><path style=" stroke:none;fill-rule:nonzero;fill:#f5b618;fill-opacity:1;" d="M 680.742188 330.5625 L 609.347656 178.761719 L 612.679688 177.203125 L 684.0625 328.992188 L 680.742188 330.5625 "/><path style=" stroke:none;fill-rule:nonzero;fill:#f5b618;fill-opacity:1;" d="M 165.023438 503.613281 L 165.175781 335.859375 L 168.847656 335.871094 L 168.699219 503.613281 L 165.023438 503.613281 "/><path style=" stroke:none;fill-rule:nonzero;fill:#f5b618;fill-opacity:1;" d="M 430.953125 391.566406 L 365.4375 159.984375 L 368.964844 158.996094 L 434.492188 390.570312 L 430.953125 391.566406 "/><path style=" stroke:none;fill-rule:nonzero;fill:#f5b618;fill-opacity:1;" d="M 173.226562 497.078125 L 434.300781 395.078125 L 435.621094 398.492188 L 174.558594 500.492188 L 173.226562 497.078125 "/><path style=" stroke:none;fill-rule:nonzero;fill:#f5b618;fill-opacity:1;" d="M 354.4375 630.648438 L 436.449219 396.515625 L 439.902344 397.734375 L 357.910156 631.867188 L 354.4375 630.648438 "/><g clip-rule="nonzero" clip-path="url(#f98e79e5e4)"><path style=" stroke:none;fill-rule:nonzero;fill:#f5b618;fill-opacity:1;" d="M 1400.050781 91.0625 L 1202.828125 130.332031 L 1202.113281 126.734375 L 1400.050781 87.3125 L 1400.050781 91.0625 "/></g><path style=" stroke:none;fill-rule:nonzero;fill:#f5b618;fill-opacity:1;" d="M 1234.324219 836.175781 C 1242.582031 836.175781 1249.277344 829.488281 1249.277344 821.222656 C 1249.277344 812.964844 1242.582031 806.269531 1234.324219 806.269531 C 1226.066406 806.269531 1219.371094 812.964844 1219.371094 821.222656 C 1219.371094 829.488281 1226.066406 836.175781 1234.324219 836.175781 "/><path style=" stroke:none;fill-rule:nonzero;fill:#f5b618;fill-opacity:1;" d="M 1172.335938 425.863281 C 1181.316406 425.863281 1188.59375 418.585938 1188.59375 409.59375 C 1188.59375 400.625 1181.316406 393.335938 1172.335938 393.335938 C 1163.355469 393.335938 1156.078125 400.625 1156.078125 409.59375 C 1156.078125 418.585938 1163.355469 425.863281 1172.335938 425.863281 "/><path style=" stroke:none;fill-rule:nonzero;fill:#f5b618;fill-opacity:1;" d="M 1361.742188 394.734375 C 1370.960938 394.734375 1378.417969 387.277344 1378.417969 378.058594 C 1378.417969 368.859375 1370.960938 361.382812 1361.742188 361.382812 C 1352.542969 361.382812 1345.074219 368.859375 1345.074219 378.058594 C 1345.074219 387.277344 1352.542969 394.734375 1361.742188 394.734375 "/><path style=" stroke:none;fill-rule:nonzero;fill:#f5b618;fill-opacity:1;" d="M 1255.375 671.992188 C 1264.136719 671.992188 1271.234375 664.90625 1271.234375 656.144531 C 1271.234375 647.382812 1264.136719 640.285156 1255.375 640.285156 C 1246.625 640.285156 1239.527344 647.382812 1239.527344 656.144531 C 1239.527344 664.90625 1246.625 671.992188 1255.375 671.992188 "/><path style=" stroke:none;fill-rule:nonzero;fill:#f5b618;fill-opacity:1;" d="M 956.429688 779.773438 C 965.382812 779.773438 972.640625 772.515625 972.640625 763.5625 C 972.640625 754.613281 965.382812 747.355469 956.429688 747.355469 C 947.480469 747.355469 940.21875 754.613281 940.21875 763.5625 C 940.21875 772.515625 947.480469 779.773438 956.429688 779.773438 "/><path style=" stroke:none;fill-rule:nonzero;fill:#f5b618;fill-opacity:1;" d="M 975.039062 596.507812 C 983.371094 596.507812 990.125 589.761719 990.125 581.417969 C 990.125 573.085938 983.371094 566.332031 975.039062 566.332031 C 966.703125 566.332031 959.949219 573.085938 959.949219 581.417969 C 959.949219 589.761719 966.703125 596.507812 975.039062 596.507812 "/><path style=" stroke:none;fill-rule:nonzero;fill:#f5b618;fill-opacity:1;" d="M 728.519531 583.179688 C 736.640625 583.179688 743.226562 576.597656 743.226562 568.472656 C 743.226562 560.347656 736.640625 553.753906 728.519531 553.753906 C 720.394531 553.753906 713.8125 560.347656 713.8125 568.472656 C 713.8125 576.597656 720.394531 583.179688 728.519531 583.179688 "/><path style=" stroke:none;fill-rule:nonzero;fill:#f5b618;fill-opacity:1;" d="M 469.261719 824.570312 C 478.355469 824.570312 485.738281 817.207031 485.738281 808.105469 C 485.738281 799.007812 478.355469 791.628906 469.261719 791.628906 C 460.164062 791.628906 452.785156 799.007812 452.785156 808.105469 C 452.785156 817.207031 460.164062 824.570312 469.261719 824.570312 "/><path style=" stroke:none;fill-rule:nonzero;fill:#f5b618;fill-opacity:1;" d="M 354.734375 645.070312 C 363.457031 645.070312 370.523438 638.003906 370.523438 629.277344 C 370.523438 620.554688 363.457031 613.488281 354.734375 613.488281 C 346.019531 613.488281 338.941406 620.554688 338.941406 629.277344 C 338.941406 638.003906 346.019531 645.070312 354.734375 645.070312 "/><path style=" stroke:none;fill-rule:nonzero;fill:#f5b618;fill-opacity:1;" d="M 185.992188 796.050781 C 194.203125 796.050781 200.839844 789.402344 200.839844 781.191406 C 200.839844 772.992188 194.203125 766.34375 185.992188 766.34375 C 177.792969 766.34375 171.140625 772.992188 171.140625 781.191406 C 171.140625 789.402344 177.792969 796.050781 185.992188 796.050781 "/><path style=" stroke:none;fill-rule:nonzero;fill:#f5b618;fill-opacity:1;" d="M 959.339844 763.734375 L 1067.570312 891.894531 L 1064.753906 894.261719 L 956.527344 766.105469 L 959.339844 763.734375 "/><path style=" stroke:none;fill-rule:nonzero;fill:#f5b618;fill-opacity:1;" d="M 740.457031 834.351562 L 469.261719 811.765625 L 469.566406 808.105469 L 740.769531 830.6875 L 740.457031 834.351562 "/><path style=" stroke:none;fill-rule:nonzero;fill:#f5b618;fill-opacity:1;" d="M 466.195312 804.003906 L 354.734375 637.441406 L 357.789062 635.394531 L 469.261719 801.957031 L 466.195312 804.003906 "/><path style=" stroke:none;fill-rule:nonzero;fill:#f5b618;fill-opacity:1;" d="M 182.472656 784.875 L -46.066406 788.746094 L -46.132812 785.074219 L 182.414062 781.191406 L 182.472656 784.875 "/><path style=" stroke:none;fill-rule:nonzero;fill:#f5b618;fill-opacity:1;" d="M 360.507812 632.039062 L 181.207031 789.894531 L 178.78125 787.136719 L 358.082031 629.277344 L 360.507812 632.039062 "/><path style=" stroke:none;fill-rule:nonzero;fill:#f5b618;fill-opacity:1;" d="M -43.925781 791.5625 L 10.648438 890.050781 L 7.441406 891.828125 L -47.144531 793.347656 L -43.925781 791.5625 "/><path style=" stroke:none;fill-rule:nonzero;fill:#f5b618;fill-opacity:1;" d="M 462.324219 807.230469 L 223.96875 938.546875 L 222.199219 935.320312 L 460.566406 804.003906 L 462.324219 807.230469 "/><path style=" stroke:none;fill-rule:nonzero;fill:#f5b618;fill-opacity:1;" d="M 217.976562 936.699219 L 184.382812 786.136719 L 187.96875 785.339844 L 221.570312 935.902344 L 217.976562 936.699219 "/><path style=" stroke:none;fill-rule:nonzero;fill:#f5b618;fill-opacity:1;" d="M 956.527344 769.40625 L 751.09375 835.359375 L 749.96875 831.859375 L 955.414062 765.894531 L 956.527344 769.40625 "/><path style=" stroke:none;fill-rule:nonzero;fill:#f5b618;fill-opacity:1;" d="M 975.171875 578.554688 L 956.992188 764.90625 L 953.328125 764.542969 L 971.519531 578.195312 L 975.171875 578.554688 "/><path style=" stroke:none;fill-rule:nonzero;fill:#f5b618;fill-opacity:1;" d="M 733.589844 566.253906 L 746.574219 828.8125 L 742.902344 828.996094 L 729.917969 566.425781 L 733.589844 566.253906 "/><path style=" stroke:none;fill-rule:nonzero;fill:#f5b618;fill-opacity:1;" d="M 733.457031 568.472656 L 975.039062 582.761719 L 974.820312 586.433594 L 733.238281 572.132812 L 733.457031 568.472656 "/><path style=" stroke:none;fill-rule:nonzero;fill:#f5b618;fill-opacity:1;" d="M 352.070312 628.230469 L 727.910156 564.230469 L 728.519531 567.851562 L 352.667969 631.855469 L 352.070312 628.230469 "/><path style=" stroke:none;fill-rule:nonzero;fill:#f5b618;fill-opacity:1;" d="M 1230.574219 823.21875 L 1255.585938 657.351562 L 1259.21875 657.894531 L 1234.210938 823.773438 L 1230.574219 823.21875 "/><g clip-rule="nonzero" clip-path="url(#465af0b6eb)"><path style=" stroke:none;fill-rule:nonzero;fill:#f5b618;fill-opacity:1;" d="M 1263.035156 653.367188 L 1400.050781 669.222656 L 1400.050781 672.925781 L 1262.605469 657.019531 L 1263.035156 653.367188 "/></g><path style=" stroke:none;fill-rule:nonzero;fill:#f5b618;fill-opacity:1;" d="M 1179.730469 407.367188 L 1361.085938 374.75 L 1361.75 378.363281 L 1180.375 410.992188 L 1179.730469 407.367188 "/><g clip-rule="nonzero" clip-path="url(#1b6f29d040)"><path style=" stroke:none;fill-rule:nonzero;fill:#f5b618;fill-opacity:1;" d="M 1361.75 372.941406 L 1400.050781 305.191406 L 1400.050781 312.65625 L 1364.945312 374.75 L 1361.75 372.941406 "/></g><g clip-rule="nonzero" clip-path="url(#0057dbd8fe)"><path style=" stroke:none;fill-rule:nonzero;fill:#f5b618;fill-opacity:1;" d="M 1361.929688 378.058594 L 1400.050781 405.476562 L 1400.050781 410.003906 L 1359.78125 381.046875 L 1361.929688 378.058594 "/></g><path style=" stroke:none;fill-rule:nonzero;fill:#f5b618;fill-opacity:1;" d="M 956.78125 760.253906 L 1258.019531 656.144531 L 1259.21875 659.605469 L 957.980469 763.734375 L 956.78125 760.253906 "/><path style=" stroke:none;fill-rule:nonzero;fill:#f5b618;fill-opacity:1;" d="M 1175.808594 410.992188 L 1259.171875 652.15625 L 1255.699219 653.367188 L 1172.335938 412.183594 L 1175.808594 410.992188 "/><path style=" stroke:none;fill-rule:nonzero;fill:#f5b618;fill-opacity:1;" d="M 1170.988281 413.761719 L 978.625 581.417969 L 976.207031 578.652344 L 1168.578125 410.992188 L 1170.988281 413.761719 "/><path style=" stroke:none;fill-rule:nonzero;fill:#f5b618;fill-opacity:1;" d="M 170.382812 509.226562 L 185.992188 778.699219 L 182.328125 778.910156 L 166.710938 509.433594 L 170.382812 509.226562 "/><path style=" stroke:none;fill-rule:nonzero;fill:#f5b618;fill-opacity:1;" d="M 14.585938 483.957031 L -46.050781 789.894531 L -49.644531 789.171875 L 10.980469 483.246094 L 14.585938 483.957031 "/></g><mask id="26ede4a189"><g filter="url(#74bec6db44)"><rect x="0" width="1440" y="0" height="809.999993" style="fill:#000000;fill-opacity:0.15;stroke:none;"/></g></mask></g></g></svg>