<svg xmlns="http://www.w3.org/2000/svg" xmlns:xlink="http://www.w3.org/1999/xlink" width="200" zoomAndPan="magnify" viewBox="0 0 150 149.999998" height="200" preserveAspectRatio="xMidYMid meet" version="1.2"><defs><clipPath id="76683b2ba0"><path d="M 3.511719 80.691406 L 146.480469 80.691406 L 146.480469 150 L 3.511719 150 Z M 3.511719 80.691406 "/></clipPath><clipPath id="65c60da09f"><path d="M 74.996094 80.691406 C 35.519531 80.691406 3.511719 112.695312 3.511719 152.175781 C 3.511719 191.65625 35.519531 223.660156 74.996094 223.660156 C 114.476562 223.660156 146.480469 191.65625 146.480469 152.175781 C 146.480469 112.695312 114.476562 80.691406 74.996094 80.691406 Z M 74.996094 80.691406 "/></clipPath><clipPath id="d222954eac"><path d="M 10.28125 89.640625 L 139.714844 89.640625 L 139.714844 150 L 10.28125 150 Z M 10.28125 89.640625 "/></clipPath><clipPath id="3de11acfa8"><path d="M 75 89.640625 C 39.257812 89.640625 10.28125 118.613281 10.28125 154.355469 C 10.28125 190.097656 39.257812 219.074219 75 219.074219 C 110.742188 219.074219 139.714844 190.097656 139.714844 154.355469 C 139.714844 118.613281 110.742188 89.640625 75 89.640625 Z M 75 89.640625 "/></clipPath><clipPath id="c7b0b21f1e"><path d="M 19.257812 96.433594 L 131 96.433594 L 131 150 L 19.257812 150 Z M 19.257812 96.433594 "/></clipPath></defs><g id="b4d70e4ec2"><g clip-rule="nonzero" clip-path="url(#76683b2ba0)"><g clip-rule="nonzero" clip-path="url(#65c60da09f)"><path style=" stroke:none;fill-rule:nonzero;fill:#b30911;fill-opacity:1;" d="M 72.367188 81.113281 C 71.621094 81.140625 70.875 81.179688 70.132812 81.230469 L 70.082031 80.480469 C 70.832031 80.429688 71.585938 80.390625 72.339844 80.363281 Z M 69.761719 81.257812 C 69.019531 81.308594 68.28125 81.375 67.546875 81.453125 L 67.46875 80.707031 C 68.210938 80.628906 68.960938 80.5625 69.707031 80.507812 Z M 67.171875 81.492188 C 66.425781 81.574219 65.679688 81.667969 64.941406 81.773438 L 64.835938 81.03125 C 65.585938 80.921875 66.335938 80.828125 67.089844 80.746094 Z M 64.570312 81.824219 C 63.832031 81.933594 63.097656 82.054688 62.363281 82.183594 L 62.230469 81.449219 C 62.972656 81.3125 63.714844 81.191406 64.460938 81.082031 Z M 62 82.253906 C 61.265625 82.386719 60.535156 82.535156 59.808594 82.691406 L 59.648438 81.960938 C 60.382812 81.800781 61.121094 81.652344 61.863281 81.515625 Z M 59.441406 82.773438 C 58.710938 82.9375 57.984375 83.109375 57.257812 83.296875 L 57.074219 82.570312 C 57.804688 82.382812 58.539062 82.207031 59.277344 82.042969 Z M 56.898438 83.390625 C 56.179688 83.578125 55.460938 83.78125 54.75 83.992188 L 54.535156 83.273438 C 55.257812 83.058594 55.980469 82.855469 56.707031 82.664062 Z M 54.390625 84.097656 C 53.675781 84.3125 52.964844 84.542969 52.257812 84.78125 L 52.015625 84.070312 C 52.734375 83.828125 53.453125 83.597656 54.175781 83.378906 Z M 51.902344 84.902344 C 51.195312 85.144531 50.496094 85.398438 49.796875 85.660156 L 49.53125 84.960938 C 50.234375 84.691406 50.945312 84.4375 51.660156 84.191406 Z M 49.449219 85.792969 C 48.753906 86.0625 48.0625 86.339844 47.378906 86.628906 L 47.085938 85.9375 C 47.78125 85.644531 48.476562 85.363281 49.179688 85.09375 Z M 47.035156 86.777344 C 46.347656 87.070312 45.664062 87.375 44.984375 87.691406 L 44.667969 87.011719 C 45.355469 86.691406 46.042969 86.382812 46.738281 86.085938 Z M 44.648438 87.851562 C 43.972656 88.167969 43.304688 88.496094 42.640625 88.839844 L 42.296875 88.171875 C 42.96875 87.828125 43.644531 87.492188 44.328125 87.171875 Z M 42.308594 89.007812 C 41.648438 89.351562 40.992188 89.707031 40.339844 90.070312 L 39.972656 89.414062 C 40.632812 89.046875 41.296875 88.691406 41.964844 88.34375 Z M 40.015625 90.253906 C 39.363281 90.621094 38.71875 91 38.082031 91.386719 L 37.691406 90.746094 C 38.335938 90.355469 38.988281 89.972656 39.644531 89.601562 Z M 37.765625 91.582031 C 37.128906 91.972656 36.5 92.375 35.878906 92.785156 L 35.464844 92.160156 C 36.09375 91.742188 36.730469 91.339844 37.371094 90.945312 Z M 35.566406 92.992188 C 34.945312 93.40625 34.332031 93.832031 33.722656 94.265625 L 33.285156 93.65625 C 33.902344 93.214844 34.523438 92.785156 35.152344 92.367188 Z M 33.417969 94.484375 C 32.8125 94.921875 32.210938 95.367188 31.621094 95.824219 L 31.160156 95.230469 C 31.761719 94.769531 32.367188 94.316406 32.980469 93.875 Z M 31.324219 96.054688 C 30.734375 96.511719 30.152344 96.980469 29.578125 97.460938 L 29.097656 96.882812 C 29.679688 96.398438 30.269531 95.925781 30.863281 95.460938 Z M 29.292969 97.699219 C 28.71875 98.179688 28.15625 98.667969 27.597656 99.167969 L 27.097656 98.609375 C 27.660156 98.105469 28.230469 97.609375 28.808594 97.125 Z M 27.320312 99.417969 C 26.769531 99.917969 26.222656 100.425781 25.683594 100.945312 L 25.164062 100.402344 C 25.707031 99.878906 26.257812 99.367188 26.816406 98.859375 Z M 25.414062 101.203125 C 24.882812 101.722656 24.355469 102.253906 23.835938 102.789062 L 23.296875 102.269531 C 23.820312 101.726562 24.351562 101.191406 24.894531 100.664062 Z M 23.578125 103.058594 C 23.0625 103.597656 22.554688 104.144531 22.054688 104.703125 L 21.496094 104.199219 C 22 103.640625 22.515625 103.085938 23.035156 102.539062 Z M 21.808594 104.980469 C 21.3125 105.539062 20.824219 106.105469 20.347656 106.679688 L 19.769531 106.199219 C 20.253906 105.617188 20.746094 105.046875 21.246094 104.484375 Z M 20.109375 106.964844 C 19.632812 107.542969 19.164062 108.125 18.707031 108.71875 L 18.117188 108.257812 C 18.578125 107.660156 19.046875 107.070312 19.527344 106.488281 Z M 18.480469 109.015625 C 18.027344 109.609375 17.582031 110.210938 17.144531 110.816406 L 16.535156 110.378906 C 16.976562 109.765625 17.425781 109.160156 17.886719 108.558594 Z M 16.929688 111.121094 C 16.496094 111.730469 16.074219 112.347656 15.660156 112.972656 L 15.035156 112.558594 C 15.453125 111.929688 15.878906 111.304688 16.316406 110.6875 Z M 15.457031 113.285156 C 15.046875 113.90625 14.648438 114.539062 14.261719 115.175781 L 13.621094 114.785156 C 14.015625 114.140625 14.417969 113.503906 14.828125 112.871094 Z M 14.066406 115.492188 C 13.683594 116.132812 13.304688 116.777344 12.941406 117.429688 L 12.285156 117.0625 C 12.65625 116.40625 13.035156 115.753906 13.425781 115.105469 Z M 12.757812 117.757812 C 12.398438 118.410156 12.046875 119.066406 11.707031 119.730469 L 11.039062 119.386719 C 11.382812 118.714844 11.738281 118.050781 12.101562 117.394531 Z M 11.535156 120.0625 C 11.199219 120.726562 10.871094 121.398438 10.554688 122.074219 L 9.875 121.753906 C 10.195312 121.070312 10.527344 120.394531 10.867188 119.722656 Z M 10.398438 122.410156 C 10.085938 123.089844 9.78125 123.773438 9.492188 124.464844 L 8.800781 124.171875 C 9.09375 123.476562 9.402344 122.785156 9.71875 122.097656 Z M 9.347656 124.804688 C 9.058594 125.492188 8.785156 126.183594 8.519531 126.878906 L 7.816406 126.613281 C 8.085938 125.910156 8.363281 125.210938 8.652344 124.519531 Z M 8.386719 127.230469 C 8.125 127.929688 7.875 128.632812 7.632812 129.339844 L 6.925781 129.097656 C 7.167969 128.382812 7.421875 127.671875 7.683594 126.964844 Z M 7.515625 129.695312 C 7.28125 130.402344 7.054688 131.113281 6.839844 131.832031 L 6.121094 131.617188 C 6.339844 130.890625 6.566406 130.171875 6.804688 129.457031 Z M 6.738281 132.1875 C 6.527344 132.902344 6.328125 133.617188 6.144531 134.339844 L 5.417969 134.152344 C 5.605469 133.421875 5.804688 132.699219 6.015625 131.976562 Z M 6.050781 134.703125 C 5.867188 135.425781 5.695312 136.15625 5.535156 136.886719 L 4.804688 136.726562 C 4.964844 135.988281 5.140625 135.25 5.324219 134.519531 Z M 5.457031 137.253906 C 5.300781 137.980469 5.15625 138.710938 5.023438 139.441406 L 4.285156 139.308594 C 4.421875 138.570312 4.566406 137.832031 4.722656 137.097656 Z M 4.960938 139.808594 C 4.832031 140.542969 4.714844 141.277344 4.609375 142.019531 L 3.867188 141.910156 C 3.972656 141.164062 4.089844 140.421875 4.222656 139.679688 Z M 4.554688 142.386719 C 4.453125 143.128906 4.363281 143.875 4.285156 144.621094 L 3.539062 144.542969 C 3.617188 143.789062 3.710938 143.035156 3.8125 142.285156 Z M 4.246094 144.996094 C 4.171875 145.730469 4.109375 146.46875 4.058594 147.210938 L 3.3125 147.160156 C 3.363281 146.410156 3.425781 145.664062 3.5 144.921875 Z M 4.035156 147.582031 C 3.988281 148.324219 3.949219 149.070312 3.925781 149.820312 L 3.175781 149.792969 C 3.203125 149.039062 3.238281 148.285156 3.285156 147.535156 Z M 3.914062 150.195312 C 3.898438 150.851562 3.886719 151.515625 3.886719 152.175781 L 3.890625 152.453125 L 3.140625 152.453125 L 3.136719 152.175781 C 3.136719 151.507812 3.148438 150.839844 3.164062 150.171875 Z M 3.890625 152.828125 C 3.898438 153.578125 3.917969 154.328125 3.945312 155.078125 L 3.195312 155.109375 C 3.167969 154.351562 3.148438 153.59375 3.140625 152.835938 Z M 3.960938 155.453125 C 3.996094 156.195312 4.042969 156.941406 4.097656 157.683594 L 3.351562 157.738281 C 3.292969 156.988281 3.246094 156.238281 3.214844 155.484375 Z M 4.128906 158.050781 C 4.1875 158.792969 4.261719 159.535156 4.34375 160.273438 L 3.597656 160.359375 C 3.515625 159.613281 3.441406 158.863281 3.378906 158.113281 Z M 4.386719 160.648438 C 4.476562 161.390625 4.574219 162.132812 4.6875 162.875 L 3.945312 162.984375 C 3.832031 162.238281 3.730469 161.488281 3.644531 160.734375 Z M 4.742188 163.242188 C 4.859375 163.976562 4.984375 164.710938 5.125 165.441406 L 4.386719 165.582031 C 4.246094 164.839844 4.121094 164.101562 4.003906 163.359375 Z M 5.191406 165.804688 C 5.335938 166.539062 5.488281 167.269531 5.65625 168 L 4.921875 168.164062 C 4.757812 167.429688 4.601562 166.691406 4.457031 165.949219 Z M 5.738281 168.363281 C 5.910156 169.089844 6.089844 169.816406 6.28125 170.539062 L 5.558594 170.730469 C 5.363281 170 5.179688 169.269531 5.007812 168.535156 Z M 6.378906 170.898438 C 6.574219 171.613281 6.78125 172.328125 7 173.039062 L 6.28125 173.261719 C 6.0625 172.542969 5.851562 171.820312 5.65625 171.09375 Z M 7.109375 173.394531 C 7.332031 174.109375 7.566406 174.820312 7.8125 175.527344 L 7.101562 175.773438 C 6.855469 175.058594 6.617188 174.339844 6.390625 173.617188 Z M 7.933594 175.882812 C 8.183594 176.585938 8.441406 177.285156 8.714844 177.980469 L 8.015625 178.25 C 7.742188 177.546875 7.480469 176.839844 7.226562 176.132812 Z M 8.851562 178.324219 C 9.125 179.019531 9.410156 179.707031 9.707031 180.390625 L 9.015625 180.6875 C 8.71875 179.996094 8.429688 179.300781 8.152344 178.601562 Z M 9.855469 180.734375 C 10.15625 181.417969 10.464844 182.097656 10.789062 182.769531 L 10.113281 183.09375 C 9.785156 182.414062 9.472656 181.726562 9.167969 181.035156 Z M 10.949219 183.109375 C 11.273438 183.777344 11.609375 184.445312 11.957031 185.105469 L 11.289062 185.453125 C 10.941406 184.785156 10.601562 184.113281 10.273438 183.433594 Z M 12.128906 185.433594 C 12.476562 186.09375 12.839844 186.746094 13.210938 187.394531 L 12.558594 187.769531 C 12.183594 187.113281 11.820312 186.453125 11.464844 185.785156 Z M 13.394531 187.71875 C 13.769531 188.367188 14.152344 189.007812 14.546875 189.640625 L 13.910156 190.035156 C 13.511719 189.394531 13.125 188.75 12.746094 188.09375 Z M 14.746094 189.957031 C 15.140625 190.589844 15.546875 191.210938 15.964844 191.832031 L 15.339844 192.25 C 14.921875 191.625 14.511719 190.992188 14.109375 190.355469 Z M 16.171875 192.140625 C 16.59375 192.757812 17.023438 193.371094 17.464844 193.976562 L 16.859375 194.417969 C 16.414062 193.804688 15.976562 193.1875 15.554688 192.5625 Z M 17.6875 194.277344 C 18.128906 194.878906 18.582031 195.476562 19.042969 196.0625 L 18.453125 196.527344 C 17.988281 195.933594 17.53125 195.332031 17.082031 194.722656 Z M 19.277344 196.355469 C 19.738281 196.941406 20.214844 197.519531 20.695312 198.089844 L 20.125 198.574219 C 19.636719 198 19.15625 197.414062 18.6875 196.824219 Z M 20.9375 198.375 C 21.421875 198.941406 21.917969 199.5 22.421875 200.054688 L 21.867188 200.558594 C 21.359375 200 20.859375 199.4375 20.367188 198.863281 Z M 22.671875 200.328125 C 23.179688 200.878906 23.691406 201.417969 24.214844 201.953125 L 23.679688 202.476562 C 23.152344 201.9375 22.632812 201.390625 22.121094 200.835938 Z M 24.476562 202.21875 C 25.003906 202.75 25.535156 203.269531 26.078125 203.785156 L 25.5625 204.328125 C 25.015625 203.808594 24.476562 203.28125 23.945312 202.746094 Z M 26.347656 204.039062 C 26.894531 204.550781 27.445312 205.054688 28.007812 205.546875 L 27.511719 206.109375 C 26.945312 205.609375 26.386719 205.101562 25.835938 204.585938 Z M 28.285156 205.792969 C 28.847656 206.285156 29.421875 206.765625 30 207.238281 L 29.523438 207.820312 C 28.9375 207.339844 28.363281 206.855469 27.792969 206.359375 Z M 30.289062 207.472656 C 30.867188 207.945312 31.457031 208.40625 32.050781 208.859375 L 31.597656 209.457031 C 30.996094 209 30.402344 208.53125 29.816406 208.058594 Z M 32.351562 209.082031 C 32.949219 209.53125 33.554688 209.972656 34.167969 210.402344 L 33.734375 211.015625 C 33.117188 210.582031 32.503906 210.136719 31.902344 209.683594 Z M 34.472656 210.617188 C 35.085938 211.042969 35.707031 211.457031 36.332031 211.863281 L 35.925781 212.492188 C 35.292969 212.082031 34.664062 211.664062 34.046875 211.230469 Z M 36.644531 212.066406 C 37.273438 212.46875 37.90625 212.863281 38.546875 213.246094 L 38.164062 213.890625 C 37.515625 213.503906 36.875 213.105469 36.242188 212.699219 Z M 38.867188 213.4375 C 39.511719 213.816406 40.160156 214.1875 40.816406 214.546875 L 40.457031 215.203125 C 39.792969 214.839844 39.136719 214.464844 38.488281 214.082031 Z M 41.144531 214.726562 C 41.800781 215.082031 42.460938 215.425781 43.125 215.761719 L 42.789062 216.429688 C 42.117188 216.09375 41.449219 215.742188 40.789062 215.386719 Z M 43.457031 215.925781 C 44.128906 216.257812 44.800781 216.578125 45.480469 216.890625 L 45.167969 217.570312 C 44.484375 217.257812 43.800781 216.933594 43.125 216.597656 Z M 45.820312 217.042969 C 46.503906 217.351562 47.1875 217.644531 47.878906 217.929688 L 47.59375 218.625 C 46.894531 218.335938 46.203125 218.039062 45.511719 217.726562 Z M 48.222656 218.074219 C 48.914062 218.351562 49.605469 218.621094 50.304688 218.882812 L 50.042969 219.585938 C 49.339844 219.324219 48.636719 219.050781 47.941406 218.765625 Z M 50.65625 219.011719 C 51.359375 219.265625 52.066406 219.511719 52.773438 219.742188 L 52.539062 220.457031 C 51.824219 220.21875 51.109375 219.972656 50.398438 219.714844 Z M 53.128906 219.859375 C 53.839844 220.089844 54.550781 220.304688 55.269531 220.511719 L 55.058594 221.234375 C 54.335938 221.023438 53.617188 220.804688 52.898438 220.574219 Z M 55.625 220.613281 C 56.34375 220.816406 57.0625 221.007812 57.789062 221.1875 L 57.605469 221.917969 C 56.875 221.734375 56.148438 221.542969 55.421875 221.335938 Z M 58.148438 221.277344 C 58.878906 221.453125 59.609375 221.621094 60.34375 221.773438 L 60.1875 222.507812 C 59.445312 222.351562 58.707031 222.183594 57.972656 222.007812 Z M 60.710938 221.847656 C 61.4375 221.996094 62.167969 222.136719 62.898438 222.261719 L 62.769531 223 C 62.03125 222.871094 61.292969 222.734375 60.558594 222.585938 Z M 63.265625 222.320312 C 64 222.445312 64.738281 222.554688 65.480469 222.652344 L 65.378906 223.398438 C 64.632812 223.296875 63.886719 223.183594 63.140625 223.0625 Z M 65.851562 222.703125 C 66.59375 222.796875 67.339844 222.882812 68.085938 222.953125 L 68.011719 223.699219 C 67.257812 223.628906 66.507812 223.542969 65.753906 223.445312 Z M 68.453125 222.988281 C 69.191406 223.054688 69.933594 223.113281 70.675781 223.15625 L 70.628906 223.90625 C 69.878906 223.859375 69.132812 223.804688 68.382812 223.734375 Z M 71.046875 223.175781 C 71.792969 223.21875 72.539062 223.246094 73.289062 223.265625 L 73.269531 224.015625 C 72.515625 223.996094 71.757812 223.96875 71.003906 223.925781 Z M 73.660156 223.273438 L 75 223.285156 L 75.925781 223.28125 L 75.929688 224.03125 L 74.996094 224.035156 L 73.652344 224.023438 Z M 76.300781 223.273438 C 77.050781 223.261719 77.796875 223.234375 78.546875 223.199219 L 78.582031 223.949219 C 77.828125 223.984375 77.070312 224.011719 76.3125 224.023438 Z M 78.917969 223.179688 C 79.660156 223.140625 80.402344 223.085938 81.140625 223.023438 L 81.207031 223.769531 C 80.457031 223.835938 79.710938 223.886719 78.957031 223.929688 Z M 81.511719 222.992188 C 82.257812 222.921875 83 222.84375 83.742188 222.753906 L 83.832031 223.496094 C 83.082031 223.589844 82.332031 223.667969 81.578125 223.738281 Z M 84.113281 222.707031 C 84.855469 222.613281 85.59375 222.503906 86.332031 222.386719 L 86.449219 223.128906 C 85.707031 223.246094 84.957031 223.355469 84.207031 223.449219 Z M 86.699219 222.328125 C 87.433594 222.207031 88.164062 222.074219 88.890625 221.929688 L 89.039062 222.664062 C 88.300781 222.808594 87.5625 222.945312 86.820312 223.066406 Z M 89.253906 221.855469 C 89.988281 221.707031 90.722656 221.546875 91.449219 221.371094 L 91.625 222.101562 C 90.886719 222.277344 90.148438 222.441406 89.40625 222.589844 Z M 91.816406 221.285156 C 92.539062 221.109375 93.261719 220.921875 93.980469 220.722656 L 94.179688 221.445312 C 93.453125 221.648438 92.722656 221.835938 91.992188 222.015625 Z M 94.339844 220.625 C 95.054688 220.421875 95.769531 220.207031 96.476562 219.984375 L 96.703125 220.699219 C 95.988281 220.925781 95.265625 221.140625 94.542969 221.34375 Z M 96.835938 219.871094 C 97.546875 219.640625 98.253906 219.398438 98.960938 219.148438 L 99.210938 219.855469 C 98.5 220.109375 97.785156 220.351562 97.066406 220.582031 Z M 99.308594 219.019531 C 100.011719 218.765625 100.707031 218.5 101.398438 218.222656 L 101.675781 218.917969 C 100.976562 219.199219 100.273438 219.46875 99.566406 219.726562 Z M 101.742188 218.085938 C 102.433594 217.804688 103.121094 217.511719 103.804688 217.207031 L 104.109375 217.894531 C 103.417969 218.199219 102.722656 218.496094 102.027344 218.777344 Z M 104.144531 217.054688 C 104.828125 216.75 105.503906 216.433594 106.175781 216.105469 L 106.503906 216.777344 C 105.824219 217.109375 105.140625 217.429688 104.453125 217.742188 Z M 106.507812 215.941406 C 107.175781 215.609375 107.839844 215.269531 108.496094 214.917969 L 108.847656 215.578125 C 108.183594 215.933594 107.515625 216.277344 106.839844 216.613281 Z M 108.824219 214.742188 C 109.480469 214.382812 110.132812 214.019531 110.777344 213.640625 L 111.15625 214.289062 C 110.503906 214.671875 109.84375 215.039062 109.179688 215.398438 Z M 111.097656 213.453125 C 111.742188 213.074219 112.378906 212.683594 113.007812 212.285156 L 113.410156 212.917969 C 112.773438 213.320312 112.128906 213.714844 111.480469 214.097656 Z M 113.324219 212.082031 C 113.949219 211.679688 114.574219 211.269531 115.1875 210.847656 L 115.613281 211.464844 C 114.992188 211.890625 114.363281 212.308594 113.726562 212.714844 Z M 115.496094 210.632812 C 116.109375 210.207031 116.71875 209.769531 117.320312 209.324219 L 117.765625 209.925781 C 117.160156 210.378906 116.542969 210.820312 115.921875 211.25 Z M 117.621094 209.101562 C 118.21875 208.652344 118.808594 208.195312 119.390625 207.726562 L 119.859375 208.3125 C 119.269531 208.785156 118.671875 209.25 118.070312 209.703125 Z M 119.683594 207.496094 C 120.261719 207.023438 120.835938 206.546875 121.402344 206.058594 L 121.890625 206.625 C 121.320312 207.121094 120.742188 207.601562 120.15625 208.078125 Z M 121.683594 205.8125 C 122.246094 205.324219 122.804688 204.824219 123.351562 204.316406 L 123.859375 204.867188 C 123.308594 205.378906 122.746094 205.882812 122.175781 206.378906 Z M 123.625 204.0625 C 124.167969 203.550781 124.703125 203.03125 125.234375 202.503906 L 125.761719 203.035156 C 125.226562 203.570312 124.6875 204.09375 124.136719 204.609375 Z M 125.496094 202.242188 C 126.023438 201.710938 126.539062 201.171875 127.046875 200.625 L 127.597656 201.136719 C 127.082031 201.6875 126.558594 202.234375 126.027344 202.769531 Z M 127.300781 200.351562 C 127.808594 199.804688 128.304688 199.246094 128.792969 198.679688 L 129.359375 199.171875 C 128.867188 199.742188 128.363281 200.304688 127.851562 200.859375 Z M 129.035156 198.398438 C 129.523438 197.832031 130 197.257812 130.46875 196.671875 L 131.050781 197.144531 C 130.578125 197.730469 130.097656 198.3125 129.605469 198.886719 Z M 130.699219 196.382812 C 131.164062 195.796875 131.621094 195.203125 132.066406 194.605469 L 132.667969 195.050781 C 132.21875 195.65625 131.757812 196.257812 131.289062 196.847656 Z M 132.289062 194.304688 C 132.734375 193.703125 133.167969 193.09375 133.59375 192.476562 L 134.210938 192.902344 C 133.78125 193.523438 133.34375 194.140625 132.894531 194.75 Z M 133.804688 192.167969 C 134.226562 191.550781 134.636719 190.925781 135.035156 190.300781 L 135.667969 190.703125 C 135.261719 191.335938 134.847656 191.964844 134.425781 192.589844 Z M 135.234375 189.984375 C 135.632812 189.351562 136.019531 188.714844 136.394531 188.070312 L 137.042969 188.449219 C 136.664062 189.101562 136.269531 189.746094 135.871094 190.382812 Z M 136.585938 187.746094 C 136.957031 187.101562 137.324219 186.449219 137.675781 185.789062 L 138.335938 186.144531 C 137.980469 186.808594 137.613281 187.46875 137.234375 188.125 Z M 137.851562 185.460938 C 138.199219 184.804688 138.539062 184.140625 138.867188 183.472656 L 139.542969 183.800781 C 139.210938 184.476562 138.867188 185.148438 138.515625 185.8125 Z M 139.03125 183.136719 C 139.355469 182.464844 139.671875 181.785156 139.976562 181.105469 L 140.660156 181.410156 C 140.355469 182.097656 140.035156 182.785156 139.707031 183.464844 Z M 140.128906 180.761719 C 140.429688 180.078125 140.71875 179.390625 140.996094 178.699219 L 141.691406 178.980469 C 141.410156 179.679688 141.117188 180.375 140.816406 181.0625 Z M 141.132812 178.355469 C 141.410156 177.660156 141.671875 176.964844 141.925781 176.261719 L 142.628906 176.515625 C 142.375 177.226562 142.109375 177.929688 141.832031 178.628906 Z M 142.050781 175.910156 C 142.300781 175.207031 142.539062 174.496094 142.765625 173.78125 L 143.480469 174.011719 C 143.25 174.730469 143.007812 175.449219 142.757812 176.160156 Z M 142.878906 173.425781 C 143.101562 172.714844 143.308594 172.003906 143.507812 171.285156 L 144.230469 171.488281 C 144.03125 172.210938 143.816406 172.933594 143.59375 173.648438 Z M 143.609375 170.929688 C 143.804688 170.207031 143.988281 169.484375 144.164062 168.757812 L 144.894531 168.933594 C 144.71875 169.667969 144.53125 170.398438 144.332031 171.125 Z M 144.25 168.394531 C 144.417969 167.664062 144.578125 166.933594 144.722656 166.199219 L 145.460938 166.347656 C 145.3125 167.089844 145.152344 167.828125 144.980469 168.566406 Z M 144.796875 165.835938 C 144.9375 165.105469 145.070312 164.375 145.1875 163.640625 L 145.929688 163.761719 C 145.808594 164.503906 145.675781 165.242188 145.53125 165.980469 Z M 145.246094 163.273438 C 145.363281 162.535156 145.464844 161.792969 145.558594 161.050781 L 146.304688 161.144531 C 146.210938 161.894531 146.105469 162.644531 145.988281 163.390625 Z M 145.605469 160.679688 C 145.691406 159.9375 145.769531 159.195312 145.832031 158.453125 L 146.582031 158.515625 C 146.515625 159.269531 146.4375 160.019531 146.347656 160.769531 Z M 145.863281 158.082031 C 145.925781 157.34375 145.976562 156.601562 146.011719 155.855469 L 146.761719 155.894531 C 146.722656 156.644531 146.675781 157.394531 146.613281 158.144531 Z M 146.03125 155.484375 C 146.066406 154.734375 146.089844 153.984375 146.097656 153.234375 L 146.847656 153.246094 C 146.839844 154.003906 146.816406 154.761719 146.78125 155.519531 Z M 146.105469 152.859375 L 146.105469 152.175781 C 146.105469 151.648438 146.101562 151.125 146.089844 150.601562 L 146.839844 150.582031 C 146.851562 151.113281 146.855469 151.644531 146.855469 152.179688 L 146.855469 152.863281 Z M 146.082031 150.226562 C 146.0625 149.476562 146.027344 148.730469 145.984375 147.984375 L 146.734375 147.941406 C 146.777344 148.695312 146.808594 149.449219 146.832031 150.203125 Z M 145.964844 147.613281 C 145.914062 146.871094 145.859375 146.132812 145.789062 145.394531 L 146.535156 145.324219 C 146.605469 146.070312 146.664062 146.816406 146.710938 147.566406 Z M 145.753906 145.027344 C 145.675781 144.277344 145.589844 143.535156 145.492188 142.789062 L 146.238281 142.691406 C 146.335938 143.441406 146.421875 144.195312 146.5 144.953125 Z M 145.441406 142.417969 C 145.339844 141.679688 145.230469 140.941406 145.105469 140.207031 L 145.84375 140.082031 C 145.96875 140.824219 146.082031 141.570312 146.1875 142.316406 Z M 145.039062 139.839844 C 144.914062 139.109375 144.773438 138.378906 144.621094 137.652344 L 145.355469 137.5 C 145.507812 138.234375 145.648438 138.972656 145.78125 139.710938 Z M 144.546875 137.285156 C 144.390625 136.550781 144.222656 135.820312 144.042969 135.09375 L 144.769531 134.914062 C 144.953125 135.648438 145.121094 136.386719 145.277344 137.128906 Z M 143.953125 134.730469 C 143.769531 134.007812 143.574219 133.289062 143.371094 132.574219 L 144.09375 132.367188 C 144.300781 133.089844 144.496094 133.816406 144.679688 134.546875 Z M 143.269531 132.214844 C 143.058594 131.5 142.839844 130.789062 142.605469 130.078125 L 143.320312 129.847656 C 143.554688 130.5625 143.777344 131.28125 143.988281 132.007812 Z M 142.488281 129.722656 C 142.253906 129.015625 142.007812 128.308594 141.75 127.609375 L 142.453125 127.347656 C 142.714844 128.058594 142.964844 128.769531 143.203125 129.488281 Z M 141.617188 127.257812 C 141.359375 126.5625 141.085938 125.867188 140.804688 125.179688 L 141.496094 124.894531 C 141.78125 125.589844 142.058594 126.289062 142.320312 126.996094 Z M 140.660156 124.835938 C 140.375 124.144531 140.074219 123.460938 139.765625 122.78125 L 140.449219 122.46875 C 140.761719 123.15625 141.0625 123.851562 141.351562 124.546875 Z M 139.609375 122.441406 C 139.296875 121.761719 138.972656 121.089844 138.640625 120.421875 L 139.3125 120.085938 C 139.648438 120.761719 139.976562 121.441406 140.292969 122.125 Z M 138.472656 120.089844 C 138.136719 119.425781 137.789062 118.765625 137.433594 118.113281 L 138.089844 117.75 C 138.453125 118.414062 138.800781 119.078125 139.140625 119.75 Z M 137.25 117.785156 C 136.890625 117.128906 136.519531 116.480469 136.136719 115.839844 L 136.78125 115.457031 C 137.167969 116.105469 137.542969 116.761719 137.90625 117.421875 Z M 135.945312 115.519531 C 135.558594 114.882812 135.164062 114.25 134.757812 113.621094 L 135.386719 113.214844 C 135.796875 113.847656 136.195312 114.488281 136.585938 115.132812 Z M 134.554688 113.308594 C 134.148438 112.683594 133.726562 112.066406 133.300781 111.453125 L 133.914062 111.023438 C 134.347656 111.644531 134.769531 112.269531 135.183594 112.898438 Z M 133.085938 111.148438 C 132.652344 110.539062 132.210938 109.933594 131.757812 109.335938 L 132.359375 108.882812 C 132.8125 109.488281 133.261719 110.097656 133.695312 110.714844 Z M 131.535156 109.039062 C 131.078125 108.445312 130.617188 107.859375 130.144531 107.28125 L 130.726562 106.804688 C 131.203125 107.390625 131.671875 107.984375 132.128906 108.582031 Z M 129.90625 106.992188 C 129.433594 106.414062 128.949219 105.84375 128.457031 105.285156 L 129.019531 104.789062 C 129.519531 105.355469 130.007812 105.929688 130.484375 106.511719 Z M 128.207031 105.003906 C 127.714844 104.445312 127.210938 103.894531 126.695312 103.351562 L 127.242188 102.835938 C 127.761719 103.386719 128.269531 103.941406 128.769531 104.507812 Z M 126.441406 103.082031 C 125.925781 102.542969 125.402344 102.011719 124.867188 101.488281 L 125.394531 100.953125 C 125.933594 101.480469 126.460938 102.019531 126.980469 102.5625 Z M 124.601562 101.226562 C 124.066406 100.703125 123.523438 100.191406 122.972656 99.6875 L 123.480469 99.136719 C 124.035156 99.644531 124.585938 100.160156 125.125 100.6875 Z M 122.695312 99.4375 C 122.144531 98.9375 121.582031 98.445312 121.011719 97.960938 L 121.5 97.390625 C 122.074219 97.878906 122.640625 98.375 123.199219 98.882812 Z M 120.726562 97.71875 C 120.15625 97.238281 119.578125 96.765625 118.988281 96.304688 L 119.453125 95.714844 C 120.046875 96.183594 120.632812 96.660156 121.210938 97.144531 Z M 118.695312 96.074219 C 118.105469 95.613281 117.507812 95.164062 116.90625 94.722656 L 117.347656 94.117188 C 117.957031 94.5625 118.5625 95.015625 119.15625 95.480469 Z M 116.601562 94.503906 C 115.996094 94.0625 115.382812 93.636719 114.761719 93.214844 L 115.183594 92.59375 C 115.808594 93.019531 116.429688 93.453125 117.042969 93.894531 Z M 114.453125 93.007812 C 113.832031 92.59375 113.207031 92.191406 112.574219 91.796875 L 112.972656 91.160156 C 113.609375 91.558594 114.242188 91.964844 114.871094 92.382812 Z M 112.257812 91.597656 C 111.621094 91.207031 110.980469 90.824219 110.332031 90.453125 L 110.707031 89.804688 C 111.359375 90.179688 112.007812 90.5625 112.652344 90.960938 Z M 110.007812 90.269531 C 109.359375 89.898438 108.703125 89.542969 108.042969 89.195312 L 108.394531 88.53125 C 109.058594 88.882812 109.722656 89.242188 110.378906 89.617188 Z M 107.714844 89.023438 C 107.050781 88.679688 106.386719 88.347656 105.710938 88.023438 L 106.035156 87.347656 C 106.714844 87.671875 107.390625 88.011719 108.058594 88.355469 Z M 105.375 87.863281 C 104.699219 87.542969 104.019531 87.234375 103.332031 86.9375 L 103.632812 86.25 C 104.324219 86.550781 105.011719 86.863281 105.695312 87.183594 Z M 102.988281 86.789062 C 102.304688 86.496094 101.617188 86.210938 100.921875 85.941406 L 101.195312 85.242188 C 101.898438 85.515625 102.59375 85.800781 103.285156 86.097656 Z M 100.578125 85.804688 C 99.878906 85.539062 99.179688 85.28125 98.476562 85.035156 L 98.722656 84.324219 C 99.433594 84.574219 100.140625 84.835938 100.847656 85.105469 Z M 98.121094 84.910156 C 97.414062 84.667969 96.703125 84.4375 95.988281 84.214844 L 96.207031 83.5 C 96.929688 83.722656 97.652344 83.957031 98.367188 84.203125 Z M 95.632812 84.105469 C 94.921875 83.890625 94.207031 83.6875 93.488281 83.492188 L 93.683594 82.769531 C 94.40625 82.964844 95.128906 83.171875 95.851562 83.390625 Z M 93.128906 83.398438 C 92.40625 83.207031 91.679688 83.03125 90.949219 82.863281 L 91.117188 82.132812 C 91.855469 82.300781 92.585938 82.480469 93.316406 82.671875 Z M 90.585938 82.78125 C 89.855469 82.617188 89.125 82.464844 88.390625 82.328125 L 88.53125 81.589844 C 89.273438 81.730469 90.011719 81.882812 90.75 82.046875 Z M 88.027344 82.257812 C 87.296875 82.121094 86.5625 82 85.824219 81.886719 L 85.9375 81.144531 C 86.683594 81.257812 87.425781 81.382812 88.164062 81.519531 Z M 85.457031 81.832031 C 84.714844 81.722656 83.972656 81.625 83.230469 81.539062 L 83.316406 80.792969 C 84.066406 80.878906 84.816406 80.976562 85.566406 81.089844 Z M 82.855469 81.496094 C 82.117188 81.414062 81.375 81.34375 80.636719 81.285156 L 80.695312 80.539062 C 81.441406 80.597656 82.191406 80.667969 82.9375 80.75 Z M 80.265625 81.257812 C 79.523438 81.203125 78.777344 81.160156 78.03125 81.128906 L 78.0625 80.382812 C 78.816406 80.414062 79.570312 80.457031 80.320312 80.511719 Z M 77.660156 81.117188 C 76.910156 81.089844 76.160156 81.070312 75.40625 81.066406 L 75.410156 80.316406 C 76.171875 80.320312 76.929688 80.339844 77.6875 80.367188 Z M 75.027344 81.066406 L 74.996094 81.066406 C 74.246094 81.066406 73.492188 81.078125 72.742188 81.101562 L 72.71875 80.351562 C 73.476562 80.328125 74.238281 80.316406 74.996094 80.316406 L 75.03125 80.316406 Z M 75.027344 81.066406 "/></g></g><g clip-rule="nonzero" clip-path="url(#d222954eac)"><g clip-rule="nonzero" clip-path="url(#3de11acfa8)"><path style="fill:none;stroke-width:1.6;stroke-linecap:butt;stroke-linejoin:miter;stroke:#b30911;stroke-opacity:1;stroke-miterlimit:4;" d="M 86.290782 0.00248884 C 38.634529 0.00248884 -0.000889934 38.632699 -0.000889934 86.288952 C -0.000889934 133.945205 38.634529 172.580624 86.290782 172.580624 C 133.947035 172.580624 172.577245 133.945205 172.577245 86.288952 C 172.577245 38.632699 133.947035 0.00248884 86.290782 0.00248884 Z M 86.290782 0.00248884 " transform="matrix(0.75,0,0,0.75,10.281917,89.638758)"/></g></g><g clip-rule="nonzero" clip-path="url(#c7b0b21f1e)"><path style=" stroke:none;fill-rule:nonzero;fill:#b30911;fill-opacity:1;" d="M 130.738281 152.175781 C 130.738281 154 130.648438 155.820312 130.46875 157.640625 C 130.289062 159.457031 130.023438 161.257812 129.667969 163.050781 C 129.308594 164.839844 128.867188 166.609375 128.335938 168.355469 C 127.808594 170.101562 127.191406 171.820312 126.496094 173.507812 C 125.796875 175.191406 125.015625 176.839844 124.15625 178.453125 C 123.296875 180.0625 122.359375 181.625 121.34375 183.144531 C 120.328125 184.660156 119.242188 186.125 118.085938 187.535156 C 116.925781 188.949219 115.703125 190.300781 114.410156 191.589844 C 113.121094 192.878906 111.769531 194.105469 110.359375 195.261719 C 108.945312 196.421875 107.484375 197.507812 105.964844 198.523438 C 104.445312 199.535156 102.882812 200.472656 101.273438 201.332031 C 99.664062 202.195312 98.015625 202.972656 96.328125 203.671875 C 94.640625 204.371094 92.925781 204.984375 91.175781 205.515625 C 89.429688 206.046875 87.660156 206.488281 85.871094 206.84375 C 84.082031 207.199219 82.277344 207.46875 80.460938 207.648438 C 78.644531 207.828125 76.824219 207.914062 74.996094 207.914062 C 73.171875 207.914062 71.351562 207.828125 69.535156 207.648438 C 67.714844 207.46875 65.914062 207.199219 64.121094 206.84375 C 62.332031 206.488281 60.5625 206.046875 58.816406 205.515625 C 57.070312 204.984375 55.351562 204.371094 53.667969 203.671875 C 51.980469 202.972656 50.332031 202.195312 48.722656 201.332031 C 47.109375 200.472656 45.546875 199.535156 44.03125 198.523438 C 42.511719 197.507812 41.046875 196.421875 39.636719 195.261719 C 38.226562 194.105469 36.875 192.878906 35.582031 191.589844 C 34.292969 190.300781 33.066406 188.949219 31.910156 187.535156 C 30.75 186.125 29.664062 184.660156 28.652344 183.144531 C 27.636719 181.625 26.699219 180.0625 25.839844 178.453125 C 24.976562 176.839844 24.199219 175.191406 23.5 173.507812 C 22.800781 171.820312 22.1875 170.101562 21.65625 168.355469 C 21.128906 166.609375 20.683594 164.839844 20.328125 163.050781 C 19.972656 161.257812 19.703125 159.457031 19.523438 157.640625 C 19.347656 155.820312 19.257812 154 19.257812 152.175781 C 19.257812 150.351562 19.347656 148.527344 19.523438 146.710938 C 19.703125 144.894531 19.972656 143.089844 20.328125 141.300781 C 20.683594 139.511719 21.128906 137.742188 21.65625 135.996094 C 22.1875 134.246094 22.800781 132.53125 23.5 130.84375 C 24.199219 129.15625 24.976562 127.507812 25.839844 125.898438 C 26.699219 124.289062 27.636719 122.726562 28.652344 121.207031 C 29.664062 119.691406 30.75 118.226562 31.910156 116.8125 C 33.066406 115.402344 34.292969 114.050781 35.582031 112.761719 C 36.875 111.46875 38.226562 110.246094 39.636719 109.085938 C 41.046875 107.929688 42.511719 106.84375 44.03125 105.828125 C 45.546875 104.816406 47.109375 103.878906 48.722656 103.015625 C 50.332031 102.15625 51.980469 101.375 53.667969 100.679688 C 55.351562 99.980469 57.070312 99.367188 58.816406 98.835938 C 60.5625 98.304688 62.332031 97.863281 64.121094 97.507812 C 65.914062 97.148438 67.714844 96.882812 69.535156 96.703125 C 71.351562 96.523438 73.171875 96.433594 74.996094 96.433594 C 76.824219 96.433594 78.644531 96.523438 80.460938 96.703125 C 82.277344 96.882812 84.082031 97.148438 85.871094 97.507812 C 87.660156 97.863281 89.429688 98.304688 91.175781 98.835938 C 92.925781 99.367188 94.640625 99.980469 96.328125 100.679688 C 98.015625 101.375 99.664062 102.15625 101.273438 103.015625 C 102.882812 103.878906 104.445312 104.816406 105.964844 105.828125 C 107.484375 106.84375 108.945312 107.929688 110.359375 109.085938 C 111.769531 110.246094 113.121094 111.46875 114.410156 112.761719 C 115.703125 114.050781 116.925781 115.402344 118.085938 116.8125 C 119.242188 118.226562 120.328125 119.691406 121.34375 121.207031 C 122.359375 122.726562 123.296875 124.289062 124.15625 125.898438 C 125.015625 127.507812 125.796875 129.15625 126.496094 130.84375 C 127.191406 132.53125 127.808594 134.246094 128.335938 135.996094 C 128.867188 137.742188 129.308594 139.511719 129.667969 141.300781 C 130.023438 143.089844 130.289062 144.894531 130.46875 146.710938 C 130.648438 148.527344 130.738281 150.351562 130.738281 152.175781 Z M 130.738281 152.175781 "/></g></g></svg>